HIERARCHY
ROOT root
{
	OFFSET	0.000000	0.000000	0.000000
	CHANNELS 6 Xposition Yposition Zposition Zrotation Yrotation Xrotation
	JOINT lhipjoint
	{
		OFFSET	0.000000	0.000000	0.000000
		CHANNELS 3 Zrotation Yrotation Xrotation
		JOINT lfemur
		{
			OFFSET	1.568570	-1.734431	1.152047
			CHANNELS 3 Zrotation Yrotation Xrotation
			JOINT ltibia
			{
				OFFSET	2.393623	-6.576430	0.000000
				CHANNELS 3 Zrotation Yrotation Xrotation
				JOINT lfoot
				{
					OFFSET	2.509516	-6.894845	0.000000
					CHANNELS 3 Zrotation Yrotation Xrotation
					JOINT ltoes
					{
						OFFSET	0.171714	-0.471779	1.886817
						CHANNELS 3 Zrotation Yrotation Xrotation
						End Site
						{
							OFFSET	0.000000	-0.000000	0.981458
						}
					}
				}
			}
		}
	}
	JOINT rhipjoint
	{
		OFFSET	0.000000	0.000000	0.000000
		CHANNELS 3 Zrotation Yrotation Xrotation
		JOINT rfemur
		{
			OFFSET	-1.281526	-1.734433	1.152048
			CHANNELS 3 Zrotation Yrotation Xrotation
			JOINT rtibia
			{
				OFFSET	-2.268611	-6.232963	0.000000
				CHANNELS 3 Zrotation Yrotation Xrotation
				JOINT rfoot
				{
					OFFSET	-2.541434	-6.982537	0.000000
					CHANNELS 3 Zrotation Yrotation Xrotation
					JOINT rtoes
					{
						OFFSET	-0.233090	-0.640414	1.931196
						CHANNELS 3 Zrotation Yrotation Xrotation
						End Site
						{
							OFFSET	-0.000000	-0.000000	1.020130
						}
					}
				}
			}
		}
	}
	JOINT lowerback
	{
		OFFSET	0.000000	0.000000	0.000000
		CHANNELS 3 Zrotation Yrotation Xrotation
		JOINT upperback
		{
			OFFSET	-0.070956	2.104600	-0.278785
			CHANNELS 3 Zrotation Yrotation Xrotation
			JOINT thorax
			{
				OFFSET	-0.008258	2.136621	-0.082789
				CHANNELS 3 Zrotation Yrotation Xrotation
				JOINT lowerneck
				{
					OFFSET	0.019810	2.171597	0.048578
					CHANNELS 3 Zrotation Yrotation Xrotation
					JOINT upperneck
					{
						OFFSET	0.032389	1.777986	0.244347
						CHANNELS 3 Zrotation Yrotation Xrotation
						JOINT head
						{
							OFFSET	0.010261	1.741935	-0.496642
							CHANNELS 3 Zrotation Yrotation Xrotation
							End Site
							{
								OFFSET	0.001698	1.830569	-0.196534
							}
						}
					}
				}
				JOINT lclavicle
				{
					OFFSET	0.019810	2.171597	0.048578
					CHANNELS 3 Zrotation Yrotation Xrotation
					JOINT lhumerus
					{
						OFFSET	3.191776	1.359067	-0.314124
						CHANNELS 3 Zrotation Yrotation Xrotation
						JOINT lradius
						{
							OFFSET	4.852470	-0.000000	-0.000000
							CHANNELS 3 Zrotation Yrotation Xrotation
							JOINT lwrist
							{
								OFFSET	3.555840	-0.000000	0.000000
								CHANNELS 3 Zrotation Yrotation Xrotation
								JOINT lhand
								{
									OFFSET	1.777920	-0.000000	0.000000
									CHANNELS 3 Zrotation Yrotation Xrotation
									JOINT lfingers
									{
										OFFSET	0.693203	-0.000000	0.000000
										CHANNELS 3 Zrotation Yrotation Xrotation
										End Site
										{
											OFFSET	0.558878	-0.000000	0.000000
										}
									}
								}
								JOINT lthumb
								{
									OFFSET	1.777920	-0.000000	0.000000
									CHANNELS 3 Zrotation Yrotation Xrotation
									End Site
									{
										OFFSET	0.567411	-0.000000	0.567411
									}
								}
							}
						}
					}
				}
				JOINT rclavicle
				{
					OFFSET	0.019810	2.171597	0.048578
					CHANNELS 3 Zrotation Yrotation Xrotation
					JOINT rhumerus
					{
						OFFSET	-3.289992	1.241910	-0.268986
						CHANNELS 3 Zrotation Yrotation Xrotation
						JOINT rradius
						{
							OFFSET	-4.644620	-0.000000	0.000000
							CHANNELS 3 Zrotation Yrotation Xrotation
							JOINT rwrist
							{
								OFFSET	-3.407030	-0.000000	0.000000
								CHANNELS 3 Zrotation Yrotation Xrotation
								JOINT rhand
								{
									OFFSET	-1.703520	-0.000000	0.000000
									CHANNELS 3 Zrotation Yrotation Xrotation
									JOINT rfingers
									{
										OFFSET	-0.619577	-0.000000	0.000000
										CHANNELS 3 Zrotation Yrotation Xrotation
										End Site
										{
											OFFSET	-0.499519	-0.000000	0.000000
										}
									}
								}
								JOINT rthumb
								{
									OFFSET	-1.703520	-0.000000	0.000000
									CHANNELS 3 Zrotation Yrotation Xrotation
									End Site
									{
										OFFSET	-0.507146	-0.000000	0.507146
									}
								}
							}
						}
					}
				}
			}
		}
	}
}
MOTION
Frames:	12
Frame Time:	0.008333
-33.071020 15.780674 0.943961 109.161715 78.831036 112.312529 0.000000 0.000000 0.000000 -37.584584 -0.677522 3.104021 2.370709 9.598942 27.687497 2.612016 -9.509481 -29.114754 0.789171 5.670897 15.832456 0.000000 0.000000 0.000000 2.141457 -0.268287 -35.267938 -11.107716 -17.987397 63.130890 -39.875326 1.526725 172.588186 -0.138209 -2.396054 6.601542 -14.979753 -1.337776 15.572271 -3.681968 -4.142659 2.661593 5.213133 -1.675144 -5.043684 0.115544 1.408558 -32.568126 2.575896 1.247003 16.959014 1.159719 0.942680 10.680226 0.000000 0.000000 0.000000 -75.323395 -8.712612 48.355837 105.750153 -59.041617 -73.596142 -0.000002 0.000000 -11.972632 46.830575 -30.053524 -28.096359 -7.125020 0.000002 0.000000 8.682861 -9.833528 -10.144862 0.000000 0.000000 0.000000 76.205823 -42.549511 48.683397 -95.636622 59.879608 -64.879496 0.000002 -0.000000 -23.330760 -32.154857 -28.199924 16.544728 7.125020 -0.000002 0.000000 -2.068485 -62.315893 0.871024
-32.602358 15.898026 0.940107 111.614415 78.476573 115.007467 0.000000 0.000000 0.000000 -37.629705 -0.581302 5.928560 1.998319 8.862575 25.366379 2.235089 -10.135335 -26.613977 0.718145 5.415374 15.097175 0.000000 0.000000 0.000000 1.910465 0.074977 -37.515189 -12.108520 -18.436148 66.332376 -39.582631 4.707622 174.065408 -0.324879 -3.663535 10.131945 -15.296993 -1.810376 15.234941 -3.515961 -4.764307 2.547175 5.639850 -1.988431 -4.813314 0.490013 1.826810 -32.539727 2.205742 1.729726 17.325561 1.054463 1.136297 10.814326 0.000000 0.000000 0.000000 -75.936459 -9.428418 48.312164 108.230446 -58.706210 -75.719449 -0.000002 0.000000 -11.805602 47.766903 -30.479319 -29.202505 -7.125020 0.000002 0.000000 9.051121 -10.779601 -10.714986 0.000000 0.000000 0.000000 75.202803 -44.411277 49.488003 -96.454190 59.842009 -65.586534 0.000002 -0.000000 -24.017233 -32.954207 -27.940265 16.894103 7.125020 -0.000002 0.000000 -3.161375 -62.244285 1.323531
-32.132100 16.018957 0.936851 113.730843 78.144520 117.347879 0.000000 0.000000 0.000000 -37.566166 -0.337853 8.627366 1.665706 8.131995 23.115712 1.819365 -10.332876 -23.947406 0.611484 5.004941 13.922655 0.000000 0.000000 0.000000 1.706804 0.432555 -39.586529 -13.234232 -18.865107 69.851445 -38.438721 8.060475 173.364489 -0.501596 -4.540325 12.601978 -15.607185 -2.256837 14.929364 -3.334742 -5.356616 2.417638 6.074964 -2.286088 -4.617907 0.845213 2.233210 -32.503297 1.855796 2.203900 17.673990 0.957374 1.326483 10.942135 0.000000 0.000000 0.000000 -76.508584 -10.051650 48.342484 110.636729 -58.328043 -77.771613 -0.000002 0.000000 -11.765577 48.729769 -30.922664 -30.363031 -7.125020 0.000002 0.000000 9.423681 -11.770866 -11.297863 0.000000 0.000000 0.000000 74.140720 -46.254954 50.337896 -97.251164 59.800385 -66.275487 0.000002 -0.000000 -24.701365 -33.705868 -27.613246 17.176328 7.125020 -0.000002 0.000000 -4.210154 -62.086384 1.745444
-31.657468 16.146497 0.935077 115.434737 77.867635 119.246458 0.000000 0.000000 0.000000 -37.308100 0.140901 11.112106 1.375228 7.421160 20.969248 1.376015 -9.884074 -20.952441 0.465557 4.376502 12.138377 0.000000 0.000000 0.000000 1.560112 0.814201 -41.344199 -14.519134 -19.263993 73.783818 -35.969520 11.868989 168.491793 -0.594435 -4.935916 13.725877 -15.914333 -2.655236 14.681023 -3.130084 -5.899015 2.261085 6.527880 -2.554691 -4.485364 1.168913 2.618552 -32.456054 1.536057 2.659887 17.997113 0.872712 1.509745 11.060864 0.000000 0.000000 0.000000 -77.005399 -10.508707 48.508768 112.950915 -57.913000 -79.736816 -0.000002 0.000000 -11.938850 49.733185 -31.400239 -31.608221 -7.125020 0.000002 0.000000 9.799945 -12.837323 -11.900641 0.000000 0.000000 0.000000 73.037069 -48.078676 51.197139 -98.010429 59.756141 -66.931556 0.000002 -0.000000 -25.346180 -34.325810 -27.194783 17.324518 7.125020 -0.000002 0.000000 -5.107649 -61.791114 2.081914
-31.177611 16.281705 0.935697 116.713604 77.656628 120.688575 0.000000 0.000000 0.000000 -36.816616 0.869282 13.345463 1.124439 6.735574 18.934311 0.932101 -8.788666 -17.507555 0.306828 3.561250 9.845453 0.000000 0.000000 0.000000 1.482897 1.219754 -42.715122 -15.895831 -19.591267 77.921198 -32.052799 16.199449 157.069168 -0.612665 -5.009686 13.936190 -16.231455 -2.993717 14.492392 -2.902584 -6.378674 2.079114 7.002988 -2.786900 -4.415727 1.458716 2.976746 -32.401722 1.246775 3.089929 18.291349 0.799885 1.682723 11.169876 0.000000 0.000000 0.000000 -77.404886 -10.773354 48.848159 115.156117 -57.468296 -81.600675 -0.000002 0.000000 -12.341159 50.779242 -31.893259 -32.930334 -7.125020 0.000002 0.000000 10.185177 -13.961131 -12.528912 0.000000 0.000000 0.000000 71.925735 -49.866132 52.019360 -98.722114 59.710577 -67.546232 0.000002 -0.000000 -25.905248 -34.741309 -26.705563 17.304210 7.125020 -0.000002 0.000000 -5.750447 -61.359993 2.287635
-30.692898 16.423831 0.939396 117.580009 77.507527 121.688978 0.000000 0.000000 0.000000 -36.096355 1.812194 15.334940 0.909222 6.076158 17.005548 0.526072 -7.163465 -13.566663 0.167898 2.639757 7.277359 0.000000 0.000000 0.000000 1.477319 1.655595 -43.678216 -17.167037 -19.806482 81.691250 -27.102295 20.462717 135.899276 -0.603030 -4.970843 13.825422 -16.574426 -3.269144 14.341092 -2.659108 -6.787226 1.887293 7.498601 -2.980548 -4.380710 1.720717 3.305301 -32.351895 0.981096 3.488802 18.560029 0.734832 1.842732 11.272312 0.000000 0.000000 0.000000 -77.699290 -10.859025 49.366197 117.242585 -57.001020 -83.355243 -0.000002 0.000001 -12.922793 51.839058 -32.350452 -34.266337 -7.125020 0.000002 0.000000 10.581171 -15.069239 -13.174922 0.000000 0.000000 0.000000 70.852246 -51.585675 52.756045 -99.385657 59.664504 -68.119061 0.000002 -0.000000 -26.353088 -34.929795 -26.184044 17.124283 7.125020 -0.000002 0.000000 -6.101428 -60.829229 2.354946
-30.204232 16.570869 0.946528 118.071408 77.413994 122.286985 0.000000 0.000000 0.000000 -35.176570 2.910147 17.115222 0.726212 5.445054 15.182414 0.201570 -5.161390 -9.181054 0.070356 1.711248 4.708311 0.000000 0.000000 0.000000 1.545827 2.133557 -44.241222 -18.041952 -19.907830 84.266595 -22.072398 23.064089 102.821852 -0.600914 -4.962270 13.800983 -16.947448 -3.483092 14.203503 -2.409552 -7.120334 1.701134 8.004682 -3.135978 -4.353358 1.964103 3.603740 -32.320202 0.734868 3.851771 18.818481 0.674132 1.987811 11.376066 0.000000 0.000000 0.000000 -77.890699 -10.786277 50.045311 119.212066 -56.516253 -85.002518 -0.000002 0.000001 -13.603362 52.851399 -32.721279 -35.518366 -7.125020 0.000002 0.000000 10.975421 -16.069034 -13.809472 0.000000 0.000000 0.000000 69.867812 -53.210387 53.362056 -100.000277 59.618719 -68.649406 0.000002 0.000000 -26.682545 -34.892292 -25.664879 16.808563 7.125020 -0.000002 0.000000 -6.160877 -60.238880 2.297034
-29.712592 16.720156 0.957048 118.260547 77.372263 122.558631 0.000000 0.000000 0.000000 -34.100105 4.086426 18.731434 0.573198 4.848464 13.476861 -0.002736 -2.928187 -4.508698 0.018763 0.884372 2.430715 0.000000 0.000000 0.000000 1.694146 2.656616 -44.425507 -18.251929 -19.926579 84.882969 -17.329493 22.048244 63.615382 -0.619555 -5.037260 14.014863 -17.335114 -3.641414 14.062076 -2.165629 -7.378664 1.529683 8.500053 -3.255350 -4.319250 2.200984 3.872735 -32.313752 0.507893 4.173534 19.083995 0.615057 2.116489 11.488736 0.000000 0.000000 0.000000 -77.979628 -10.569378 50.855127 121.067758 -56.018619 -86.545838 -0.000002 0.000001 -14.310771 53.734970 -32.991471 -36.590027 -7.125020 0.000002 0.000000 11.334358 -16.893809 -14.379182 0.000000 0.000000 0.000000 69.025431 -54.724907 53.802204 -100.560179 59.574390 -69.132313 0.000002 0.000000 -26.894028 -34.639838 -25.177816 16.385405 7.125020 -0.000002 0.000000 -5.945893 -59.627284 2.135411
-29.218782 16.868788 0.970433 118.237993 77.376257 122.603229 0.000000 0.000000 0.000000 -32.926419 5.250459 20.224010 0.448917 4.298634 11.918376 -0.064617 -0.595149 0.191902 0.001686 0.265127 0.728454 0.000000 0.000000 0.000000 1.920926 3.210632 -44.260633 -17.677179 -19.870145 83.194387 -12.262095 17.553015 30.883835 -0.654801 -5.175868 14.410850 -17.712290 -3.755233 13.897615 -1.939118 -7.568811 1.377096 8.958417 -3.343532 -4.268349 2.448738 4.115457 -32.329084 0.293035 4.452096 19.364210 0.551690 2.228260 11.612955 0.000000 0.000000 0.000000 -77.960548 -10.220492 51.759055 122.802335 -55.515733 -87.979962 -0.000002 0.000001 -15.002306 54.402323 -33.193225 -37.408247 -7.125020 0.000002 0.000000 11.604782 -17.521673 -14.810286 0.000000 0.000000 0.000000 68.366944 -56.119547 54.062612 -101.064862 59.532281 -69.567401 0.000002 0.000000 -26.992032 -34.220047 -24.750664 15.902907 7.125020 -0.000002 0.000000 -5.518389 -59.040373 1.907524
-28.723423 17.013823 0.985607 118.077088 77.412065 122.507384 0.000000 0.000000 0.000000 -31.733689 6.313351 21.613406 0.353237 3.818497 10.566591 0.009422 1.702020 4.595930 0.000120 -0.070653 -0.194120 0.000000 0.000000 0.000000 2.204908 3.766936 -43.780717 -16.389626 -19.684571 79.390424 -7.303272 11.661150 9.525104 -0.694751 -5.328278 14.847282 -18.059402 -3.838672 13.692114 -1.739277 -7.703036 1.241795 9.359616 -3.407522 -4.194919 2.724824 4.338358 -32.355125 0.073901 4.692866 19.660145 0.475790 2.324683 11.748049 0.000000 0.000000 0.000000 -77.827810 -9.748329 52.720616 124.402487 -55.017855 -89.295030 -0.000002 0.000001 -15.670471 54.782520 -33.393430 -37.940169 -7.125020 0.000002 0.000000 11.728344 -17.977407 -15.027505 0.000000 0.000000 0.000000 67.903316 -57.389361 54.156798 -101.534372 59.491264 -69.971992 0.000002 -0.000000 -26.991207 -33.720225 -24.413009 15.430397 7.125020 -0.000002 0.000000 -4.983798 -58.535357 1.662300
-28.227253 17.152401 1.000965 117.829254 77.463978 122.335401 0.000000 0.000000 0.000000 -30.605260 7.204236 22.892024 0.287058 3.445617 9.521954 0.177388 3.821942 8.370402 0.000306 -0.112973 -0.310393 0.000000 0.000000 0.000000 2.511164 4.291795 -43.021015 -14.594467 -19.284521 74.012034 -3.319929 6.058956 -2.903510 -0.728823 -5.454619 15.209895 -18.360283 -3.905795 13.438524 -1.570943 -7.796992 1.116345 9.691463 -3.454654 -4.103444 3.038892 4.549933 -32.381970 -0.163382 4.907298 19.975166 0.382509 2.409733 11.894441 0.000000 0.000000 0.000000 -77.581476 -9.157189 53.707711 125.861534 -54.534098 -90.486962 -0.000002 0.000001 -16.336325 54.854073 -33.667514 -38.210923 -7.125020 0.000002 0.000000 11.667886 -18.326309 -14.988148 0.000000 0.000000 0.000000 67.607294 -58.533677 54.118389 -102.010995 59.447799 -70.382535 0.000002 -0.000000 -26.926575 -33.227973 -24.203712 15.038778 7.125020 -0.000002 0.000000 -4.439990 -58.178156 1.439848
-27.731468 17.281869 1.014647 117.550241 77.531936 122.152613 0.000000 0.000000 0.000000 -29.604905 7.873409 24.029436 0.251568 3.227278 8.912156 0.371693 5.657463 11.237347 0.000075 0.055911 0.153615 0.000000 0.000000 0.000000 2.818993 4.761900 -42.017563 -12.531279 -18.606322 67.663189 -0.686129 1.519120 -9.508572 -0.748972 -5.527857 15.420452 -18.585290 -3.968624 13.144034 -1.431952 -7.865335 0.990494 9.943546 -3.490718 -4.009975 3.389150 4.758268 -32.407623 -0.420344 5.108205 20.316110 0.273931 2.488748 12.054690 0.000000 0.000000 0.000000 -77.231701 -8.452694 54.693484 127.180507 -54.071228 -91.558140 -0.000002 0.000001 -17.026426 54.661218 -34.065560 -38.297491 -7.125020 0.000002 0.000000 11.428255 -18.648439 -14.707245 0.000000 0.000000 0.000000 67.423515 -59.552425 53.990562 -102.543173 59.397079 -70.840710 0.000002 -0.000000 -26.844788 -32.800118 -24.164250 14.780009 7.125020 -0.000002 0.000000 -3.942837 -58.028331 1.259921
